<svg xmlns="http://www.w3.org/2000/svg" xmlns:xlink="http://www.w3.org/1999/xlink" version="1.0" x="0" y="0" width="2400" height="2400" viewBox="129.09162803649903 84.09162803649902 81.81675155639648 81.81675155639648" preserveAspectRatio="xMidYMid meet" color-interpolation-filters="sRGB"><g><defs><linearGradient id="92" x1="0%" y1="0%" x2="100%" y2="0%"><stop offset="0%" stop-color="#fa71cd"></stop> <stop offset="100%" stop-color="#9b59b6"></stop></linearGradient><linearGradient id="93" x1="0%" y1="0%" x2="100%" y2="0%"><stop offset="0%" stop-color="#f9d423"></stop> <stop offset="100%" stop-color="#f83600"></stop></linearGradient><linearGradient id="94" x1="0%" y1="0%" x2="100%" y2="0%"><stop offset="0%" stop-color="#0064d2"></stop> <stop offset="100%" stop-color="#1cb0f6"></stop></linearGradient><linearGradient id="95" x1="0%" y1="0%" x2="100%" y2="0%"><stop offset="0%" stop-color="#f00978"></stop> <stop offset="100%" stop-color="#3f51b1"></stop></linearGradient><linearGradient id="96" x1="0%" y1="0%" x2="100%" y2="0%"><stop offset="0%" stop-color="#7873f5"></stop> <stop offset="100%" stop-color="#ec77ab"></stop></linearGradient><linearGradient id="97" x1="0%" y1="0%" x2="100%" y2="0%"><stop offset="0%" stop-color="#f9d423"></stop> <stop offset="100%" stop-color="#e14fad"></stop></linearGradient><linearGradient id="98" x1="0%" y1="0%" x2="100%" y2="0%"><stop offset="0%" stop-color="#009efd"></stop> <stop offset="100%" stop-color="#2af598"></stop></linearGradient><linearGradient id="99" x1="0%" y1="0%" x2="100%" y2="0%"><stop offset="0%" stop-color="#ffcc00"></stop> <stop offset="100%" stop-color="#00b140"></stop></linearGradient><linearGradient id="100" x1="0%" y1="0%" x2="100%" y2="0%"><stop offset="0%" stop-color="#d51007"></stop> <stop offset="100%" stop-color="#ff8177"></stop></linearGradient><linearGradient id="102" x1="0%" y1="0%" x2="100%" y2="0%"><stop offset="0%" stop-color="#a2b6df"></stop> <stop offset="100%" stop-color="#0c3483"></stop></linearGradient><linearGradient id="103" x1="0%" y1="0%" x2="100%" y2="0%"><stop offset="0%" stop-color="#7ac5d8"></stop> <stop offset="100%" stop-color="#eea2a2"></stop></linearGradient><linearGradient id="104" x1="0%" y1="0%" x2="100%" y2="0%"><stop offset="0%" stop-color="#00ecbc"></stop> <stop offset="100%" stop-color="#007adf"></stop></linearGradient><linearGradient id="105" x1="0%" y1="0%" x2="100%" y2="0%"><stop offset="0%" stop-color="#b88746"></stop> <stop offset="100%" stop-color="#fdf5a6"></stop></linearGradient></defs><g fill="#343c3e" class="iconsvg-imagesvg" transform="translate(129.89374923706055,84.89374923706055)"><rect fill="#343c3e" fill-opacity="0" stroke-width="2" x="0" y="0" width="80.21250155337393" height="80.21250155337393" class="image-rect"></rect> <svg viewBox="0 0 60 66.70372429127293" x="0" y="0" width="80.21250155337393" height="80.21250155337393" class="image-svg-svg bn" style="overflow: visible;"><g hollow-target="iconBnFill" mask="url(#402e5723-57e8-43ff-916d-3f1978a0d138)"><g><svg xmlns="http://www.w3.org/2000/svg" xmlns:xlink="http://www.w3.org/1999/xlink" fill="#000000" version="1.1" x="0" y="0" viewBox="9.5 5 81 90.05" style="overflow: visible;" xml:space="preserve" width="60" height="66.70372429127293" filtersec="colorsf9806296795" filter="url(#eBalmvtunP5YURcLs7ZRS)"><g transform="scale(1, 1) skewX(0)"><path d="M90.5,68.6V31.4c0-2.8-1.5-5.4-4-6.8L54,6c-1.2-0.7-2.6-1-4-1s-2.7,0.3-4,1L13.5,24.6c-2.4,1.4-4,4-4,6.8v37.2  c0,2.8,1.5,5.4,4,6.8L46,94c2.4,1.4,5.5,1.4,7.9,0l32.6-18.6C89,74,90.5,71.4,90.5,68.6z"></path></g><defs><filter id="eBalmvtunP5YURcLs7ZRS"><feColorMatrix type="matrix" values="0 0 0 0 0.203125  0 0 0 0 0.234375  0 0 0 0 0.2421875  0 0 0 1 0"></feColorMatrix></filter></defs></svg></g> <g filter="url(#colors2354299264)"><svg xmlns="http://www.w3.org/2000/svg" xmlns:xlink="http://www.w3.org/1999/xlink" viewBox="0 0 40.75200000000001 50.400000000000006" width="32" height="35.57532" x="14" y="15.564202145636468" class="image-svg-letter"><path transform="translate(-2.16 50.400000000000006)" d="M22.46 0L22.46 0Q20.45 0 19.15-1.26Q17.86-2.52 17.86-4.39L17.86-4.39L17.86-46.15L27.22-46.15L27.22-4.39Q27.22-2.52 25.88-1.26Q24.55 0 22.46 0ZM38.52-42.12L6.55-42.12Q4.68-42.12 3.42-43.27Q2.16-44.42 2.16-46.30L2.16-46.30Q2.16-48.17 3.42-49.28Q4.68-50.40 6.55-50.40L6.55-50.40L38.52-50.40Q40.39-50.40 41.65-49.25Q42.91-48.10 42.91-46.22L42.91-46.22Q42.91-44.35 41.65-43.24Q40.39-42.12 38.52-42.12L38.52-42.12Z"></path></svg></g></g><mask id="402e5723-57e8-43ff-916d-3f1978a0d138"><g fill="white"><svg xmlns="http://www.w3.org/2000/svg" xmlns:xlink="http://www.w3.org/1999/xlink" version="1.1" x="0" y="0" viewBox="9.5 5 81 90.05" style="overflow: visible;" xml:space="preserve" width="60" height="66.70372429127293" filtersec="colorsf9806296795"><g transform="scale(1, 1) skewX(0)"><path d="M90.5,68.6V31.4c0-2.8-1.5-5.4-4-6.8L54,6c-1.2-0.7-2.6-1-4-1s-2.7,0.3-4,1L13.5,24.6c-2.4,1.4-4,4-4,6.8v37.2  c0,2.8,1.5,5.4,4,6.8L46,94c2.4,1.4,5.5,1.4,7.9,0l32.6-18.6C89,74,90.5,71.4,90.5,68.6z"></path></g><defs></defs></svg></g> <g fill="black"><svg xmlns="http://www.w3.org/2000/svg" xmlns:xlink="http://www.w3.org/1999/xlink" viewBox="0 0 40.75200000000001 50.400000000000006" width="32" height="35.57532" x="14" y="15.564202145636468" class="image-svg-letter"><path transform="translate(-2.16 50.400000000000006)" d="M22.46 0L22.46 0Q20.45 0 19.15-1.26Q17.86-2.52 17.86-4.39L17.86-4.39L17.86-46.15L27.22-46.15L27.22-4.39Q27.22-2.52 25.88-1.26Q24.55 0 22.46 0ZM38.52-42.12L6.55-42.12Q4.68-42.12 3.42-43.27Q2.16-44.42 2.16-46.30L2.16-46.30Q2.16-48.17 3.42-49.28Q4.68-50.40 6.55-50.40L6.55-50.40L38.52-50.40Q40.39-50.40 41.65-49.25Q42.91-48.10 42.91-46.22L42.91-46.22Q42.91-44.35 41.65-43.24Q40.39-42.12 38.52-42.12L38.52-42.12Z"></path></svg></g></mask></svg> <defs><filter id="colors2354299264"><feColorMatrix type="matrix" values="0 0 0 0 0.203125  0 0 0 0 0.234375  0 0 0 0 0.2421875  0 0 0 1 0" class="icon-feColorMatrix "></feColorMatrix></filter> <filter id="colorsf9806296795"><feColorMatrix type="matrix" values="0 0 0 0 0.99609375  0 0 0 0 0.99609375  0 0 0 0 0.99609375  0 0 0 1 0" class="icon-fecolormatrix"></feColorMatrix></filter> <filter id="colorsb6593281549"><feColorMatrix type="matrix" values="0 0 0 0 0  0 0 0 0 0  0 0 0 0 0  0 0 0 1 0" class="icon-fecolormatrix"></feColorMatrix></filter></defs></g><defs v-gra="od"></defs></g></svg>